<svg xmlns="http://www.w3.org/2000/svg" width="430" height="430" fill="none" viewBox="0 0 430 430"><g stroke-linejoin="round" stroke-miterlimit="10" stroke-width="18"><path stroke="#fff" d="M347.698 214.8h-48.3m-37.299 0h-179.4"/><path stroke="#ff5733" stroke-linecap="round" d="M67.9 189.5H28v25.3h54.7zm14.8 25.3-14.8 25.3H28v-25.3"/><path stroke="#fff" stroke-linecap="round" d="M223.199 28c0 9.7 5 18.6 13.3 23.7l15.8 9.7c23.8 14.6 41 38.1 46.6 65.4 1.4 7 2.2 14.2 2.2 21.5v132.9c0 7.3-.7 14.5-2.2 21.5-5.6 27.3-22.8 50.9-46.6 65.4l-15.8 9.7c-8.2 5.1-13.3 14-13.3 23.7"/><path stroke="#fff" stroke-linecap="round" d="M228 386c13.4-21.8 33.8-58.1 33.8-84.2V127.7c0-26.1-20.4-62.3-33.8-84.2M108.801 214.8 223.201 28m0 373.6-114.4-186.8"/><path stroke="#ff5733" stroke-linecap="round" d="m402.099 214.8-47.7 20.7c-3.1 1.4-6.7-.9-6.7-4.4v-32.6c0-3.4 3.5-5.7 6.7-4.4z"/></g></svg>